<svg xmlns="http://www.w3.org/2000/svg" viewBox="0 0 512 512">
  <rect width="512" height="512" rx="112" fill="#0879b5"/>
  <path d="M92 298c42-74 111-119 189-116 54 2 103 26 139 68-42 78-114 124-193 119-55-3-101-29-135-71Z" fill="#dff4ff" opacity=".9"/>
  <path d="M159 288c28-42 67-64 117-61 38 2 69 19 94 49-32 43-73 64-121 61-38-3-68-19-90-49Z" fill="#fff3d8"/>
  <circle cx="210" cy="250" r="18" fill="#f7a23b"/>
  <path d="M245 239c22-36 30-63 22-80-8 22-16 45-24 69-15-31-31-50-48-56 12 22 25 45 39 68-34-14-63-18-86-11 28 9 55 18 82 27-31 11-54 25-69 43 27-9 54-18 81-27-15 29-21 55-16 79 12-25 24-50 36-76 14 29 31 51 51 64-12-28-25-55-38-83 29 5 55 3 79-8-28-3-57-6-86-9Z" fill="#173b36"/>
</svg>
